<svg xmlns="http://www.w3.org/2000/svg" width="95" height="81" viewBox="0 0 95 81"><g><g><path fill="#fff" d="M11.154-.027h72.655A11.157 11.157 0 0 1 94.983 11.16v41.915c0 6.196-4.98 11.177-11.174 11.177H58.663v8.376h11.174a2.8 2.8 0 0 1 2.797 2.797v5.593H22.328v-5.593a2.8 2.8 0 0 1 2.797-2.797H36.3v-8.376H11.154A11.147 11.147 0 0 1-.02 53.075V11.16C-.02 4.967 4.96-.027 11.154-.027zM13.95 11.16a2.79 2.79 0 0 0-2.797 2.785V50.28a2.8 2.8 0 0 0 2.797 2.794h67.06a2.79 2.79 0 0 0 2.798-2.794V13.945a2.782 2.782 0 0 0-2.798-2.785z"/></g></g></svg>