<svg xmlns="http://www.w3.org/2000/svg" width="98" height="90" viewBox="0 0 98 90"><g><g><path fill="#fff" d="M47.557.023c3.52 0 6.394 2.432 7.024 5.757h.185l23.08 25.963h-11.55L50.36 13.806c-.877.364-1.803.635-2.804.635-.986 0-1.93-.27-2.788-.635L28.816 31.743H17.284L40.348 5.78h.183c.65-3.325 3.522-5.757 7.026-5.757zM5.754 37.503h86.51a5.75 5.75 0 0 1 5.757 5.775v2.883c0 3.043-2.337 5.437-5.306 5.678l-9.112 31.806c-2.889 5.771-5.757 5.771-8.646 5.771H23.041c-2.869 0-5.757 0-8.644-5.771L5.303 51.839C2.314 51.598-.02 49.204-.02 46.16v-2.883a5.764 5.764 0 0 1 5.775-5.775zm16.22 14.419c-3.198 0-5.28 2.407-4.606 5.406l4.055 17.94c.678 3.014 3.832 5.49 7.025 5.49H29.9c3.198 0 5.268-2.476 4.59-5.49l-4.055-17.94c-.674-2.999-3.828-5.406-7.026-5.406zm27.035 0a5.764 5.764 0 0 0-5.775 5.774v17.302a5.752 5.752 0 0 0 5.775 5.76 5.739 5.739 0 0 0 5.757-5.76V57.696a5.75 5.75 0 0 0-5.757-5.774zm25.582 0c-3.198 0-6.348 2.407-7.026 5.406l-4.055 17.94c-.674 3.014 1.396 5.49 4.588 5.49h1.453c3.198 0 6.348-2.476 7.026-5.49l4.055-17.94c.674-2.999-1.394-5.406-4.589-5.406z"/></g></g></svg>